<?xml version="1.0" standalone="no"?>
<!DOCTYPE svg PUBLIC "-//W3C//DTD SVG 20010904//EN"
 "http://www.w3.org/TR/2001/REC-SVG-20010904/DTD/svg10.dtd">
<svg version="1.0" xmlns="http://www.w3.org/2000/svg"
 width="84.000000pt" height="109.000000pt" viewBox="0 0 84.000000 109.000000"
 preserveAspectRatio="xMidYMid meet">
<metadata>
Created by potrace 1.16, written by Peter Selinger 2001-2019
</metadata>
<g transform="translate(0.000000,109.000000) scale(0.100000,-0.100000)"
fill="#000000" stroke="none">
<path d="M391 955 c-51 -46 -73 -101 -121 -299 -41 -170 -83 -294 -140 -405
-27 -54 -30 -68 -21 -88 9 -19 17 -24 43 -21 38 4 53 27 115 178 l42 105 98
12 c54 7 111 14 128 15 l29 3 42 -163 c24 -90 48 -170 55 -178 15 -18 53 -18
69 1 7 8 10 29 7 47 -10 71 -60 252 -117 423 -32 99 -68 221 -80 270 -12 50
-28 100 -36 113 -22 34 -66 29 -113 -13z m97 -270 c19 -60 37 -115 39 -121 4
-12 -96 -34 -156 -34 -26 0 -31 3 -27 18 3 9 15 60 27 112 12 52 31 120 42
150 l21 55 9 -35 c6 -19 26 -84 45 -145z"/>
</g>
</svg>
