<?xml version="1.0" standalone="no"?>
<!DOCTYPE svg PUBLIC "-//W3C//DTD SVG 20010904//EN"
 "http://www.w3.org/TR/2001/REC-SVG-20010904/DTD/svg10.dtd">
<svg version="1.0" xmlns="http://www.w3.org/2000/svg"
 width="83.000000pt" height="114.000000pt" viewBox="0 0 83.000000 114.000000"
 preserveAspectRatio="xMidYMid meet">
<metadata>
Created by potrace 1.16, written by Peter Selinger 2001-2019
</metadata>
<g transform="translate(0.000000,114.000000) scale(0.100000,-0.100000)"
fill="#000000" stroke="none">
<path d="M477 1028 c-24 -19 -43 -71 -61 -171 -20 -103 -62 -227 -121 -354
-53 -113 -146 -272 -174 -297 -30 -27 -28 -73 4 -88 45 -21 85 23 193 217 31
55 55 89 64 86 7 -1 59 -5 116 -8 88 -5 102 -8 102 -23 0 -45 22 -223 30 -245
14 -37 46 -50 77 -30 27 18 28 36 5 150 -6 28 -15 100 -21 160 -10 100 -75
446 -101 538 -20 67 -70 96 -113 65z m98 -473 l7 -50 -79 3 c-43 2 -81 7 -85
11 -4 3 9 46 28 95 20 48 43 124 52 167 l17 79 27 -127 c15 -71 30 -151 33
-178z"/>
</g>
</svg>
