<?xml version="1.0" standalone="no"?>
<!DOCTYPE svg PUBLIC "-//W3C//DTD SVG 20010904//EN"
 "http://www.w3.org/TR/2001/REC-SVG-20010904/DTD/svg10.dtd">
<svg version="1.0" xmlns="http://www.w3.org/2000/svg"
 width="79.000000pt" height="99.000000pt" viewBox="0 0 79.000000 99.000000"
 preserveAspectRatio="xMidYMid meet">
<metadata>
Created by potrace 1.16, written by Peter Selinger 2001-2019
</metadata>
<g transform="translate(0.000000,99.000000) scale(0.100000,-0.100000)"
fill="#000000" stroke="none">
<path d="M434 864 c-10 -14 -36 -90 -60 -168 -23 -79 -55 -174 -71 -212 -47
-111 -141 -271 -173 -294 -47 -34 -36 -90 18 -90 50 0 83 37 161 180 l38 72
95 3 94 4 18 -91 c23 -122 38 -156 72 -164 21 -6 31 -2 46 16 23 28 24 95 2
108 -22 12 -48 137 -33 163 8 15 6 27 -9 52 -13 21 -27 83 -41 185 -21 148
-40 221 -62 249 -6 7 -27 13 -45 13 -25 0 -38 -7 -50 -26z m65 -271 c7 -54 14
-105 17 -114 4 -13 -8 -18 -56 -26 -33 -5 -60 -7 -60 -4 0 15 76 241 81 241 3
0 11 -44 18 -97z"/>
</g>
</svg>
