<?xml version="1.0" standalone="no"?>
<!DOCTYPE svg PUBLIC "-//W3C//DTD SVG 20010904//EN"
 "http://www.w3.org/TR/2001/REC-SVG-20010904/DTD/svg10.dtd">
<svg version="1.0" xmlns="http://www.w3.org/2000/svg"
 width="83.000000pt" height="111.000000pt" viewBox="0 0 83.000000 111.000000"
 preserveAspectRatio="xMidYMid meet">
<metadata>
Created by potrace 1.16, written by Peter Selinger 2001-2019
</metadata>
<g transform="translate(0.000000,111.000000) scale(0.100000,-0.100000)"
fill="#000000" stroke="none">
<path d="M416 988 c-31 -27 -45 -77 -46 -163 0 -80 -21 -158 -74 -276 -45
-101 -142 -276 -177 -321 -42 -51 3 -109 57 -74 27 18 57 63 117 174 29 53 43
71 56 68 9 -2 59 -7 111 -11 l96 -7 37 -106 c20 -59 37 -114 37 -123 0 -19 31
-49 52 -49 19 0 48 32 48 53 0 9 -18 69 -40 133 -29 86 -37 121 -30 135 14 25
13 27 -16 54 -30 28 -41 67 -89 305 -33 162 -52 220 -74 220 -5 0 -16 3 -24 6
-8 3 -27 -5 -41 -18z m103 -500 c1 -5 -30 -8 -69 -8 -38 0 -70 4 -70 8 0 4 15
46 34 93 18 46 37 100 41 119 7 32 10 24 36 -85 15 -66 28 -123 28 -127z"/>
</g>
</svg>
